<svg width="19" height="18" viewBox="0 0 19 18" fill="none" xmlns="http://www.w3.org/2000/svg">
<path d="M14.0287 2.77778C12.6548 1.66596 10.9052 1 9 1C4.58172 1 1 4.58172 1 9C1 13.4183 4.58172 17 9 17C13.4183 17 17 13.4183 17 9C17 8.59482 16.9699 8.19668 16.9118 7.80769" stroke="#FD5444" stroke-linecap="round" stroke-linejoin="round"/>
<path d="M5.44434 8.11103L8.99989 11.6666L18.3332 2.33325" stroke="#FD5444" stroke-linecap="round"/>
</svg><svg width="19" height="18" viewBox="0 0 19 18" fill="none" xmlns="http://www.w3.org/2000/svg">
<path d="M14.0287 2.77778C12.6548 1.66596 10.9052 1 9 1C4.58172 1 1 4.58172 1 9C1 13.4183 4.58172 17 9 17C13.4183 17 17 13.4183 17 9C17 8.59482 16.9699 8.19668 16.9118 7.80769" stroke="#FD5444" stroke-linecap="round" stroke-linejoin="round"/>
<path d="M5.44434 8.11103L8.99989 11.6666L18.3332 2.33325" stroke="#FD5444" stroke-linecap="round"/>
</svg>
