<svg width="318" height="65" viewBox="0 0 318 65" fill="none" xmlns="http://www.w3.org/2000/svg">
<path d="M288 11.8235L293.026 23.9064L306.07 24.9522L296.132 33.4656L299.168 46.1949L288 39.3735L276.832 46.1949L279.868 33.4656L269.93 24.9522L282.974 23.9064L288 11.8235Z" fill="#FEB6AF"/>
<path d="M104 11.8235L109.026 23.9064L122.07 24.9522L112.132 33.4656L115.168 46.1949L104 39.3735L92.8321 46.1949L95.8685 33.4656L85.9299 24.9522L98.9744 23.9064L104 11.8235Z" fill="#FD5444"/>
<path d="M150 11.8235L155.026 23.9064L168.07 24.9522L158.132 33.4656L161.168 46.1949L150 39.3735L138.832 46.1949L141.868 33.4656L131.93 24.9522L144.974 23.9064L150 11.8235Z" fill="#FD5444"/>
<path d="M196 11.8235L201.026 23.9064L214.07 24.9522L204.132 33.4656L207.168 46.1949L196 39.3735L184.832 46.1949L187.868 33.4656L177.93 24.9522L190.974 23.9064L196 11.8235Z" fill="#FD5444"/>
<path d="M242 11.8235L247.026 23.9064L260.07 24.9522L250.132 33.4656L253.168 46.1949L242 39.3735L230.832 46.1949L233.868 33.4656L223.93 24.9522L236.974 23.9064L242 11.8235Z" fill="#FD5444"/>
<path d="M288 11.8235V39.3735L276.832 46.1949L279.868 33.4656L269.93 24.9522L282.974 23.9064L288 11.8235Z" fill="#FD5444"/>
<path d="M22.7341 37.0882V45.8235H26.2671V37.0882H30.3435V33.9047H26.2671V25.5188H22.7341V33.9047H16.1729V18.6471H12.64V37.0882H22.7341ZM31.7394 43.3388C31.7394 44.8529 32.9041 46.0176 34.4182 46.0176C35.9323 46.0176 37.1746 44.8529 37.1746 43.3388C37.1746 41.7859 35.9323 40.5824 34.4182 40.5824C32.9041 40.5824 31.7394 41.7859 31.7394 43.3388ZM50.6419 46.2506C56.3489 46.2506 59.7654 42.5624 59.7654 38.1753C59.7654 35.4188 58.3289 32.4294 55.2619 31.6141C58.0183 30.6824 59.183 28.1976 59.183 25.7518C59.183 21.6365 55.9607 18.22 50.6419 18.22C45.323 18.22 42.1007 21.5588 42.1007 25.7518C42.1007 28.1976 43.2654 30.6824 46.0219 31.6141C42.9548 32.4294 41.5183 35.38 41.5183 38.1753C41.5183 42.64 44.9348 46.2506 50.6419 46.2506ZM50.6419 30.4106C47.536 30.4106 45.6725 28.4306 45.6725 25.9071C45.6725 23.4224 47.5748 21.4035 50.6419 21.4035C53.7477 21.4035 55.6113 23.4224 55.6113 25.9071C55.6113 28.3918 53.7866 30.4106 50.6419 30.4106ZM50.6419 43.0671C47.1866 43.0671 45.0513 40.8541 45.0513 38.1753C45.0513 35.4965 47.0701 33.2835 50.6419 33.2835C54.2136 33.2835 56.2325 35.5353 56.2325 38.1753C56.2325 40.8541 54.136 43.0671 50.6419 43.0671Z" fill="black"/>
</svg>
